<svg width="1568" height="1162" viewBox="0 0 1568 1162" fill="none" xmlns="http://www.w3.org/2000/svg">
<path d="M455.101 0C664.78 0.000144205 834.759 169.979 834.759 379.658V1162H605.494V749.52C605.494 666.189 537.941 598.636 454.61 598.636C371.28 598.636 303.727 666.189 303.727 749.52V1162H75.4414V379.658C75.4414 326.016 86.568 274.972 106.637 228.708C191.237 312.337 286.668 333.233 368.526 319.513L324.302 271.885C243.961 258.384 176.875 226.818 124.817 192.299C190.104 77.4583 313.557 0.000150386 455.101 0ZM1180.12 35.2715C1394.13 35.2719 1567.62 208.761 1567.62 422.771V1034C1567.62 1104.69 1510.31 1162 1439.62 1162H1298.18V1045.41H1360.94C1407.45 1045.41 1445.15 1007.71 1445.15 961.2V749.52C1445.15 666.189 1377.59 598.636 1294.26 598.636C1210.93 598.636 1143.38 666.189 1143.38 749.52V1045.41H1143.38V1162H914.115V35.2715H1180.12ZM1209.18 296.627C1172.93 296.627 1143.54 325.579 1143.54 361.292C1143.54 397.005 1172.93 425.956 1209.18 425.956C1245.43 425.956 1274.83 397.005 1274.83 361.292C1274.83 325.579 1245.43 296.627 1209.18 296.627ZM0 72.5596C10.2635 92.0224 53.397 144.941 124.817 192.299C118.133 204.057 112.059 216.209 106.637 228.708C68.0696 190.584 31.753 139.422 0 72.5596Z" fill="#8B4D58"/>
</svg>
